<svg id="Layer_1" data-name="Layer 1" xmlns="http://www.w3.org/2000/svg" xmlns:xlink="http://www.w3.org/1999/xlink" viewBox="0 0 48 48"><defs><style>.cls-1{fill:#e6edff;}.cls-18,.cls-19,.cls-2{fill:none;}.cls-2{stroke:#4a82c1;stroke-width:0.63px;}.cls-3{fill:#ffc66c;}.cls-4{fill:#1dc1f6;}.cls-5{fill:#eafcff;}.cls-20,.cls-6{fill:#fff;}.cls-7{mask:url(#mask);}.cls-8{fill:#ebf7ff;}.cls-9{fill:#0081d0;}.cls-10{mask:url(#mask-2);}.cls-11{fill:#2668b4;}.cls-12{fill:#4a82c1;}.cls-13{fill:#00a5ec;}.cls-14{mask:url(#mask-3);}.cls-15{fill:#ffae00;}.cls-16{fill:#008bdc;}.cls-17{mask:url(#mask-4);}.cls-19{stroke:#5a5a5a;stroke-linecap:round;stroke-width:0.55px;}.cls-20{font-size:4.2px;font-family:Montserrat-Bold, Montserrat;font-weight:700;}</style><mask id="mask" x="5.3" y="8.03" width="36.19" height="30.45" maskUnits="userSpaceOnUse"><g transform="translate(0 0)"><g id="mask0_128:2764" data-name="mask0 128:2764"><rect id="Rectangle_62500" data-name="Rectangle 62500" class="cls-1" x="10" y="14.62" width="27.93" height="23.3" rx="2.02"/></g></g></mask><mask id="mask-2" x="10" y="7.9" width="29.22" height="32.06" maskUnits="userSpaceOnUse"><g transform="translate(0 0)"><g id="mask1_128:2764" data-name="mask1 128:2764"><rect id="Rectangle_62515" data-name="Rectangle 62515" class="cls-2" x="10.31" y="14.89" width="27.37" height="22.7" rx="1.71"/></g></g></mask><mask id="mask-3" x="22.41" y="25.43" width="3.49" height="5.45" maskUnits="userSpaceOnUse"><g transform="translate(0 0)"><g id="mask2_128:2764" data-name="mask2 128:2764"><path id="Vector_1430" data-name="Vector 1430" class="cls-3" d="M22.41,27A2.52,2.52,0,0,1,23,25.5h2.3A1.85,1.85,0,0,1,25.89,27c0,.29-1,2.5-1.6,3.77a.13.13,0,0,1-.24,0A17,17,0,0,1,22.41,27Z"/></g></g></mask><mask id="mask-4" x="18.02" y="6.54" width="13.63" height="24.17" maskUnits="userSpaceOnUse"><g transform="translate(0 0)"><g id="mask3_128:2764" data-name="mask3 128:2764"><path id="Vector_1428_2" data-name="Vector 1428_2" class="cls-4" d="M20.05,18.29a11,11,0,0,1,3.72-8.86.68.68,0,0,1,.85,0c2,1.64,3.88,5.77,3.75,8.87-.11,2.65-2,5.91-3.05,7.21H23A15,15,0,0,1,20.05,18.29Z"/></g></g></mask></defs><g id="Group_64938" data-name="Group 64938"><g id="_2028" data-name="2028"><circle id="Ellipse_778" data-name="Ellipse 778" class="cls-5" cx="24" cy="24" r="24"/></g><g id="Website_Launch" data-name="Website Launch"><g id="Group_64761" data-name="Group 64761"><rect id="Rectangle_62513" data-name="Rectangle 62513" class="cls-6" x="10" y="14.57" width="28" height="23.32" rx="2.02"/><g class="cls-7"><rect id="Rectangle_62511" data-name="Rectangle 62511" class="cls-8" x="24.27" y="14.38" width="17.21" height="24.09"/><rect id="Rectangle_62499" data-name="Rectangle 62499" class="cls-9" x="7" y="11.96" width="33.94" height="7.93"/><g id="Group_64844" data-name="Group 64844"><rect id="Rectangle_62514" data-name="Rectangle 62514" class="cls-2" x="10.31" y="14.89" width="27.37" height="22.7" rx="1.71"/><g class="cls-10"><rect id="Rectangle_62512" data-name="Rectangle 62512" class="cls-11" x="25.02" y="7.9" width="14.2" height="32.06"/></g></g><rect id="Rectangle_62512_2" data-name="Rectangle 62512_2" class="cls-11" x="24.89" y="8.03" width="14.4" height="12.11"/><path id="Vector_1448" data-name="Vector 1448" class="cls-12" d="M6.39,18.58l-1-2.93A1.83,1.83,0,0,1,7,13.23l14.58-.75a1.82,1.82,0,0,1,1.92,1.7l.26,3.68a1.83,1.83,0,0,1-1.83,2H8.13A1.85,1.85,0,0,1,6.39,18.58Z" transform="translate(0 0)"/><ellipse id="Ellipse_797" data-name="Ellipse 797" class="cls-3" cx="13.65" cy="17.07" rx="1.19" ry="1.18"/></g></g><g id="Group_64781" data-name="Group 64781"><path id="Vector_1431" data-name="Vector 1431" class="cls-13" d="M19.32,27.18l2.2-4.1,1.17-1.81-2.64-2.88c-2.35,3.93-1.73,7.3-1,8.79A.13.13,0,0,0,19.32,27.18Z" transform="translate(0 0)"/><g id="Group_64780" data-name="Group 64780"><path id="Vector_1428" data-name="Vector 1428" class="cls-3" d="M22.41,27A2.52,2.52,0,0,1,23,25.5h2.3A1.85,1.85,0,0,1,25.89,27c0,.29-1,2.5-1.6,3.77a.13.13,0,0,1-.24,0A17,17,0,0,1,22.41,27Z" transform="translate(0 0)"/><g class="cls-14"><path id="Vector_1429" data-name="Vector 1429" class="cls-15" d="M23.16,26.4a1.75,1.75,0,0,1,.35-1h1.35a1.21,1.21,0,0,1,.35,1c0,.18-.55,1.46-.89,2.28a.14.14,0,0,1-.25,0A10.61,10.61,0,0,1,23.16,26.4Z" transform="translate(0 0)"/></g></g><path id="Vector_1429_2" data-name="Vector 1429_2" class="cls-16" d="M28.91,27.25l-2.18-4.06.2-5.88,1.44,1a9.51,9.51,0,0,1,.77,9A.13.13,0,0,1,28.91,27.25Z" transform="translate(0 0)"/><g id="Group_64776" data-name="Group 64776"><path id="Vector_1427" data-name="Vector 1427" class="cls-4" d="M20.05,18.29a11,11,0,0,1,3.72-8.86.68.68,0,0,1,.85,0c2,1.64,3.88,5.77,3.75,8.87-.11,2.65-2,5.91-3.05,7.21H23A15,15,0,0,1,20.05,18.29Z" transform="translate(0 0)"/><g class="cls-17"><rect id="Rectangle_62509" data-name="Rectangle 62509" class="cls-13" x="18.37" y="6.54" width="13.29" height="6.3"/><rect id="Rectangle_62514_2" data-name="Rectangle 62514_2" class="cls-16" x="24.19" y="8.17" width="4.04" height="4.67"/><rect id="Rectangle_62510" data-name="Rectangle 62510" class="cls-13" x="18.02" y="24.41" width="13.29" height="6.3"/><rect id="Rectangle_62515_2" data-name="Rectangle 62515_2" class="cls-16" x="24.05" y="24.41" width="6.65" height="6.3"/><rect id="ic_launcher_foreground" data-name="ic launcher foreground" class="cls-18" x="21.33" y="15.53" width="5.88" height="3.03"/></g></g><path id="Vector_1433" data-name="Vector 1433" class="cls-19" d="M21.65,30.53v2.84m2.54-.54V36m2.53-5.48v2.84" transform="translate(0 0)"/></g></g></g><text class="cls-20" transform="translate(22.34 18.39) scale(0.95 1)">IS</text></svg>