<svg width="100%" height="100%" viewBox="0 0 48 48" fill="none" xmlns="http://www.w3.org/2000/svg">
<circle cx="24" cy="24" r="24" fill="#EAFCFF"/>
<path d="M21.3352 35.8272L22.0552 31.7676H25.8952L26.9352 35.8272H28.8374C29.775 35.8272 30.5352 36.5874 30.5352 37.525V37.7502H18.0552V37.525C18.0552 36.5874 18.8153 35.8272 19.753 35.8272H21.3352Z" fill="#00489A"/>
<mask id="mask0" style="mask-type:alpha" maskUnits="userSpaceOnUse" x="18" y="31" width="13" height="7">
<path d="M21.3352 35.8272L22.0552 31.7676H25.8952L26.9352 35.8272H28.8374C29.775 35.8272 30.5352 36.5874 30.5352 37.525V37.7502H18.0552V37.525C18.0552 36.5874 18.8153 35.8272 19.753 35.8272H21.3352Z" fill="#00489A"/>
</mask>
<g mask="url(#mask0)">
<rect x="28.8037" y="35.1064" width="2.34667" height="3.68574" fill="#003E84"/>
<rect x="24.1108" y="32.6484" width="4.26667" height="3.15157" fill="#003E84"/>
<rect x="19.3076" y="30.5127" width="10.4533" height="2.45716" fill="#013673"/>
</g>
<rect x="12" y="15.7695" width="24" height="16.1852" rx="1.06112" fill="white"/>
<mask id="mask1" style="mask-type:alpha" maskUnits="userSpaceOnUse" x="12" y="15" width="24" height="17">
<rect x="12.0531" y="15.8226" width="23.8939" height="16.0791" rx="1.00806" fill="white" stroke="black" stroke-width="0.106112"/>
</mask>
<g mask="url(#mask1)">
<rect x="24" y="15.7695" width="12.1067" height="15.4908" fill="#DFEBF4"/>
<rect x="12.3714" y="16.1409" width="23.2572" height="15.4424" rx="0.689726" stroke="#00489A" stroke-width="0.742782"/>
<mask id="mask2" style="mask-type:alpha" maskUnits="userSpaceOnUse" x="12" y="15" width="24" height="17">
<rect x="12.3714" y="16.1409" width="23.2572" height="15.4424" rx="0.689726" stroke="#00A5EC" stroke-width="0.742782"/>
</mask>
<g mask="url(#mask2)">
<rect x="26.6636" y="11.6035" width="13.44" height="21.5268" fill="#003E84"/>
</g>
<rect x="10.7207" y="29.6045" width="25.8667" height="3.04474" fill="#00489A"/>
<rect x="23.895" y="29.6045" width="14.9333" height="2.35033" fill="#003E84"/>
</g>
<path d="M16.9941 26.8504C17.0736 26.8044 17.0736 26.6897 16.9941 26.6437L14.832 25.3935C14.7524 25.3474 14.6529 25.4049 14.6529 25.4968V27.9973C14.6529 28.0893 14.7524 28.1467 14.832 28.1007L16.9941 26.8504Z" fill="#FBB043"/>
<line x1="19.5425" y1="26.8023" x2="33.785" y2="26.8023" stroke="#407093" stroke-width="0.477503" stroke-linecap="round"/>
<mask id="mask3" style="mask-type:alpha" maskUnits="userSpaceOnUse" x="19" y="26" width="16" height="2">
<line x1="19.5425" y1="26.8023" x2="33.785" y2="26.8023" stroke="#407093" stroke-width="0.477503" stroke-linecap="round"/>
</mask>
<g mask="url(#mask3)">
<line x1="24.2353" y1="26.8023" x2="33.7845" y2="26.8023" stroke="#1A496C" stroke-width="0.477503" stroke-linecap="round"/>
</g>
<path d="M30.48 26.2656L30.48 27.334" stroke="#FBB043" stroke-width="0.530559" stroke-linecap="round"/>
<path d="M30.4014 14.3535V17.238" stroke="#407093" stroke-width="0.318335"/>
<ellipse cx="30.4036" cy="17.8259" rx="0.586667" ry="0.587581" fill="#365E7D"/>
<path d="M19.7314 20.1324V15.7959H28.4248V20.1324C28.4248 20.9235 27.7834 21.5649 26.9923 21.5649H21.164C20.3728 21.5649 19.7314 20.9235 19.7314 20.1324Z" fill="#3678C2"/>
<mask id="mask4" style="mask-type:alpha" maskUnits="userSpaceOnUse" x="19" y="15" width="10" height="7">
<path d="M19.7314 20.1324V15.7959H28.4248V20.1324C28.4248 20.9235 27.7834 21.5649 26.9923 21.5649H21.164C20.3728 21.5649 19.7314 20.9235 19.7314 20.1324Z" fill="#3678C2"/>
</mask>
<g mask="url(#mask4)">
<path d="M23.8446 10.6415L16.6255 14.583C16.4738 14.6658 16.4794 14.8855 16.6351 14.9605L23.7717 18.3986C24.3433 18.674 25.0159 18.6385 25.5553 18.3044L31.3551 14.7128C31.4958 14.6256 31.487 14.418 31.3394 14.3431L24.0424 10.6385C23.98 10.6068 23.906 10.6079 23.8446 10.6415Z" fill="#2366B3"/>
</g>
<path d="M23.849 10.0536L16.6299 13.9951C16.4782 14.0779 16.4838 14.2976 16.6395 14.3726L24.5889 18.2023C24.6542 18.2338 24.7311 18.2297 24.7927 18.1916L31.3595 14.1249C31.5002 14.0377 31.4914 13.8302 31.3438 13.7552L24.0468 10.0506C23.9844 10.0189 23.9104 10.02 23.849 10.0536Z" fill="#4A82C1"/>
</svg>
