<svg width="100%" height="100%" viewBox="0 0 48 48" fill="none" xmlns="http://www.w3.org/2000/svg">
<circle cx="24" cy="24" r="24" fill="#EAFCFF"/>
<mask id="path-2-inside-1" fill="white">
<rect x="19.856" y="13" width="8.56747" height="4.69099" rx="0.925059"/>
</mask>
<rect x="19.856" y="13" width="8.56747" height="4.69099" rx="0.925059" stroke="#E8834D" stroke-width="2.92224" mask="url(#path-2-inside-1)"/>
<mask id="mask0" style="mask-type:alpha" maskUnits="userSpaceOnUse" x="19" y="13" width="10" height="5">
<mask id="path-3-inside-2" fill="white">
<rect x="19.856" y="13" width="8.56747" height="4.69099" rx="0.925059"/>
</mask>
<rect x="19.856" y="13" width="8.56747" height="4.69099" rx="0.925059" stroke="#E8834D" stroke-width="2.92224" mask="url(#path-3-inside-2)"/>
</mask>
<g mask="url(#mask0)">
<rect x="18.625" y="15.3447" width="11.2178" height="2.69795" fill="#D66E41"/>
</g>
<path d="M12 33.8232V17.9823V17.8999C12 16.8786 12.8279 16.0508 13.8491 16.0508H34.6514C35.6726 16.0508 36.5005 16.8786 36.5005 17.8999V33.8232C36.5005 34.8444 35.6726 35.6722 34.6514 35.6722H13.8491C12.8279 35.6722 12 34.8444 12 33.8232Z" fill="#3678C2"/>
<mask id="mask1" style="mask-type:alpha" maskUnits="userSpaceOnUse" x="12" y="16" width="25" height="20">
<path d="M12 33.8232V17.9823V17.8999C12 16.8786 12.8279 16.0508 13.8491 16.0508H34.6514C35.6726 16.0508 36.5005 16.8786 36.5005 17.8999V33.8232C36.5005 34.8444 35.6726 35.6722 34.6514 35.6722H13.8491C12.8279 35.6722 12 34.8444 12 33.8232Z" fill="#3B729A"/>
</mask>
<g mask="url(#mask1)">
<path d="M11.5696 20.6964L11.8173 16.5608C11.825 16.4317 11.7881 16.3039 11.7127 16.1988C11.4655 15.8543 11.6703 15.3709 12.0904 15.3131C20.4225 14.1649 35.4633 12.1078 35.5846 12.1551C35.7419 12.2165 38.6051 12.4007 37.0005 19.5849C35.7535 25.1676 30.612 27.0791 27.9539 27.4467C27.802 27.4677 27.6504 27.4905 27.4971 27.4948C26.8805 27.5123 24.9501 27.4632 20.4118 27.261C15.2839 26.3659 12.5655 23.2644 11.7007 21.4505C11.5891 21.2162 11.554 20.9554 11.5696 20.6964Z" fill="#2D68AC"/>
<path d="M11.8383 19.9254L12.0814 15.7872C12.0889 15.6593 12.0529 15.5327 11.9791 15.4279C11.7354 15.0815 11.941 14.6003 12.3605 14.5414C20.5239 13.3945 35.2421 11.3422 35.3608 11.3895C35.5148 11.4508 38.3193 11.6347 36.7476 18.8088C35.5275 24.3776 30.437 26.4327 27.8271 26.8113C27.6727 26.8337 27.5181 26.8585 27.3624 26.8665C26.7512 26.8979 24.8662 26.8889 20.4447 26.6881C15.4158 25.7931 12.8008 22.5021 11.9634 20.6676C11.8575 20.4358 11.8233 20.1798 11.8383 19.9254Z" fill="#4A82C1"/>
</g>
<rect x="20.168" y="25.3398" width="7.58129" height="2.8819" rx="0.986184" fill="#F9CF58"/>
<mask id="mask2" style="mask-type:alpha" maskUnits="userSpaceOnUse" x="20" y="25" width="8" height="4">
<rect x="20.168" y="25.3398" width="7.58129" height="2.8819" rx="0.986184" fill="#FFE27A"/>
</mask>
<g mask="url(#mask2)">
<rect x="20.168" y="24.8496" width="7.58129" height="2.8819" rx="0.986184" fill="#FFE27A"/>
</g>
</svg>
