<svg width="100%" height="100%" viewBox="0 0 48 48" fill="none" xmlns="http://www.w3.org/2000/svg">
<circle cx="24" cy="24" r="24" fill="#EAFCFF"/>
<rect x="10" y="10" width="23.8498" height="27.1771" rx="2.77358" fill="#00A5EC"/>
<mask id="mask0" style="mask-type:alpha" maskUnits="userSpaceOnUse" x="10" y="10" width="24" height="28">
<g style="mix-blend-mode:multiply">
<rect x="10" y="10" width="23.8498" height="27.1771" rx="2.77358" fill="#00A5EC"/>
</g>
</mask>
<g mask="url(#mask0)">
<rect x="21.9248" y="8.94336" width="31.5624" height="31.2272" fill="#008BDC"/>
<g style="mix-blend-mode:multiply">
<path d="M28.4045 21.3001C28.2071 20.6899 28.2043 20.307 28.2776 20.0772C28.3692 19.7901 28.757 19.6844 29.0135 19.8428C29.8587 20.3645 31.0987 22.8111 31.6973 24.1763C31.6775 23.8339 31.7507 23.1021 32.2015 22.9143C32.6524 22.7265 33.0618 23.1295 33.2101 23.3545C33.2002 23.1295 33.2813 22.6208 33.6847 22.386C34.0882 22.1512 34.5648 22.6404 34.7526 22.9143C34.7428 22.6991 34.8001 22.2451 35.1086 22.1512C36.2002 21.7756 37.0071 23.4817 37.2741 24.3817C37.7586 25.8981 38.0335 29.1597 35.2569 30.0754C31.7863 31.22 30.1844 29.283 29.1758 27.8743C28.369 26.7473 27.0598 26.1524 26.506 25.9959C26.1599 25.859 25.7466 25.4618 26.862 24.9687C27.9773 24.4757 29.6207 25.3894 30.303 25.9079C29.8284 24.8611 28.7842 22.4741 28.4045 21.3001Z" fill="#00A5EC"/>
</g>
</g>
<rect x="12.1963" y="12.1133" width="19.6375" height="21.7182" rx="1.17667" fill="#F9F9F9"/>
<mask id="mask1" style="mask-type:alpha" maskUnits="userSpaceOnUse" x="12" y="12" width="20" height="22">
<rect x="12.1963" y="12.1133" width="19.6375" height="21.7182" rx="1.17667" fill="#F9F9F9"/>
</mask>
<g mask="url(#mask1)">
<rect x="21.9258" y="7.94629" width="31.5624" height="31.2272" fill="#DFEBF4"/>
<g style="mix-blend-mode:multiply">
<path d="M28.4084 21.3011C28.211 20.6908 28.2082 20.3079 28.2815 20.0782C28.3731 19.7911 28.7609 19.6854 29.0174 19.8437C29.8626 20.3655 31.1026 22.8121 31.7012 24.1773C31.6814 23.8349 31.7546 23.1031 32.2055 22.9153C32.6563 22.7274 33.0657 23.1305 33.214 23.3555C33.2041 23.1305 33.2852 22.6218 33.6886 22.387C34.0921 22.1522 34.5687 22.6413 34.7565 22.9153C34.7467 22.7 34.804 22.2461 35.1125 22.1522C36.2041 21.7765 37.011 23.4827 37.278 24.3827C37.7625 25.8991 38.0374 29.1607 35.2608 30.0764C31.7902 31.221 30.1883 29.284 29.1797 27.8752C28.3729 26.7482 27.0637 26.1534 26.5099 25.9969C26.1638 25.8599 25.7505 25.4627 26.8659 24.9697C27.9812 24.4766 29.6246 25.3904 30.3069 25.9089C29.8323 24.8621 28.7881 22.475 28.4084 21.3011Z" fill="#BEBEBE"/>
</g>
</g>
<path d="M28.8205 20.7728C28.6231 20.1625 28.6203 19.7796 28.6936 19.5499C28.7852 19.2627 29.173 19.1571 29.4295 19.3154C30.2747 19.8372 31.5147 22.2837 32.1133 23.6489C32.0935 23.3065 32.1667 22.5748 32.6176 22.3869C33.0685 22.1991 33.4778 22.6022 33.6261 22.8272C33.6162 22.6022 33.6973 22.0935 34.1008 21.8587C34.5042 21.6239 34.9808 22.113 35.1687 22.3869C35.1588 22.1717 35.2161 21.7178 35.5246 21.6239C36.6163 21.2482 37.4231 22.9544 37.6901 23.8544C38.1746 25.3707 38.4495 28.6324 35.6729 29.5481C32.2023 30.6927 30.6004 28.7557 29.5918 27.3469C28.785 26.2199 27.4758 25.6251 26.922 25.4686C26.5759 25.3316 26.1626 24.9344 27.278 24.4414C28.3934 23.9483 30.0367 24.862 30.719 25.3805C30.2444 24.3338 29.2002 21.9467 28.8205 20.7728Z" fill="#FFBFAB"/>
<mask id="mask2" style="mask-type:alpha" maskUnits="userSpaceOnUse" x="26" y="19" width="12" height="11">
<path d="M28.8205 20.7728C28.6231 20.1625 28.6203 19.7796 28.6936 19.5499C28.7852 19.2627 29.173 19.1571 29.4295 19.3154C30.2747 19.8372 31.5147 22.2837 32.1133 23.6489C32.0935 23.3065 32.1667 22.5748 32.6176 22.3869C33.0685 22.1991 33.4778 22.6022 33.6261 22.8272C33.6162 22.6022 33.6973 22.0935 34.1008 21.8587C34.5042 21.6239 34.9808 22.113 35.1687 22.3869C35.1588 22.1717 35.2161 21.7178 35.5246 21.6239C36.6163 21.2482 37.4231 22.9544 37.6901 23.8544C38.1746 25.3707 38.4495 28.6324 35.6729 29.5481C32.2023 30.6927 30.6004 28.7557 29.5918 27.3469C28.785 26.2199 27.4758 25.6251 26.922 25.4686C26.5759 25.3316 26.1626 24.9344 27.278 24.4414C28.3934 23.9483 30.0367 24.862 30.719 25.3805C30.2444 24.3338 29.2002 21.9467 28.8205 20.7728Z" fill="#FAB187"/>
</mask>
<g mask="url(#mask2)">
<path d="M37.5488 21.3218C38.3317 33.3242 29.1324 29.5613 24.4349 26.1795C26.9439 29.2769 32.1783 35.4987 33.044 35.607C33.7769 35.6986 38.8375 32.9634 42.4013 30.9503C43.4293 30.3696 43.9014 29.1487 43.5244 28.0278C40.9023 20.2309 36.8272 10.2569 37.5488 21.3218Z" fill="#F89580"/>
</g>
<path d="M14.5679 15.8701H29.2218" stroke="#97CAEF" stroke-width="1.34476" stroke-linecap="round"/>
<path d="M14.5679 18.2178H29.2218" stroke="#97CAEF" stroke-width="1.34476" stroke-linecap="round"/>
<path d="M14.5679 20.5654H22.6365" stroke="#97CAEF" stroke-width="1.34476" stroke-linecap="round"/>
<ellipse cx="21.9253" cy="35.3575" rx="0.593278" ry="0.586978" fill="#EAFCFF"/>
</svg>
