<svg width="100%" height="100%" viewBox="0 0 48 48" fill="none" xmlns="http://www.w3.org/2000/svg">
<circle cx="24" cy="24" r="24" fill="#EAFCFF"/>
<path d="M21.4993 36.1177L22.3092 31.4727H26.6288L27.7987 36.1177H29.8846C30.9692 36.1177 31.8484 36.9969 31.8484 38.0814V38.3179H17.8096V38.0814C17.8096 36.9969 18.6888 36.1177 19.7734 36.1177H21.4993Z" fill="#00A5EC"/>
<mask id="mask0" style="mask-type:alpha" maskUnits="userSpaceOnUse" x="17" y="31" width="15" height="8">
<path d="M21.4993 36.1177L22.3092 31.4727H26.6288L27.7987 36.1177H29.8846C30.9692 36.1177 31.8484 36.9969 31.8484 38.0814V38.3179H17.8096V38.0814C17.8096 36.9969 18.6888 36.1177 19.7734 36.1177H21.4993Z" fill="#00A5EC"/>
</mask>
<g mask="url(#mask0)">
<rect x="29.9014" y="35.292" width="2.63977" height="4.21717" fill="#008BDC"/>
<rect x="24.6206" y="32.4805" width="4.79959" height="3.60598" fill="#008BDC"/>
<rect x="19.2236" y="30.0352" width="11.759" height="2.81144" fill="#006BC2"/>
</g>
<rect x="11" y="13.167" width="26.9977" height="18.5189" rx="1.22736" fill="white"/>
<mask id="mask1" style="mask-type:alpha" maskUnits="userSpaceOnUse" x="11" y="13" width="27" height="19">
<rect x="11.0614" y="13.2284" width="26.875" height="18.3961" rx="1.166" fill="white" stroke="black" stroke-width="0.122736"/>
</mask>
<g mask="url(#mask1)">
<rect x="24.498" y="13.167" width="13.6188" height="17.7243" fill="#DFEBF4"/>
<rect x="11.4296" y="13.5966" width="26.1385" height="17.6597" rx="0.797786" stroke="#00A5EC" stroke-width="0.859154"/>
<mask id="mask2" style="mask-type:alpha" maskUnits="userSpaceOnUse" x="11" y="13" width="27" height="19">
<rect x="11.4296" y="13.5966" width="26.1385" height="17.6597" rx="0.797786" stroke="#00A5EC" stroke-width="0.859154"/>
</mask>
<g mask="url(#mask2)">
<rect x="27.498" y="8.40039" width="15.1187" height="24.6307" fill="#008BDC"/>
</g>
<rect x="9.56201" y="28.9971" width="29.0975" height="3.48375" fill="#00A5EC"/>
<rect x="24.3784" y="28.9971" width="16.7986" height="2.68921" fill="#008BDC"/>
</g>
<path d="M16.618 25.8461C16.7087 25.7927 16.7087 25.6615 16.618 25.6081L14.1936 24.1822C14.1016 24.1281 13.9856 24.1944 13.9856 24.3012V27.153C13.9856 27.2598 14.1016 27.3262 14.1936 27.272L16.618 25.8461Z" fill="#FC476E"/>
<line x1="19.4939" y1="25.7873" x2="35.5002" y2="25.7873" stroke="#407093" stroke-width="0.552313" stroke-linecap="round"/>
<mask id="mask3" style="mask-type:alpha" maskUnits="userSpaceOnUse" x="19" y="25" width="17" height="2">
<line x1="19.4939" y1="25.7873" x2="35.5002" y2="25.7873" stroke="#407093" stroke-width="0.552313" stroke-linecap="round"/>
</mask>
<g mask="url(#mask3)">
<line x1="24.7747" y1="25.7873" x2="35.5014" y2="25.7873" stroke="#1A496C" stroke-width="0.552313" stroke-linecap="round"/>
</g>
<path d="M24.2711 12.1819C27.0556 9.65725 30.1882 9.52251 31.4064 9.77072V10.5863C31.7777 10.7399 32.5759 11.0969 32.7987 11.2954V20.3728C31.3716 20.1955 27.6682 20.2664 24.2711 21.9684C22.7628 21.3183 19.0292 20.1742 16.1611 20.7983V11.2954C16.3816 11.2245 16.906 11.0898 17.2401 11.1181V9.84163C18.9457 9.56979 22.7396 9.65725 24.2711 12.1819Z" fill="#F9F9F9"/>
<mask id="mask4" style="mask-type:alpha" maskUnits="userSpaceOnUse" x="16" y="9" width="17" height="13">
<path d="M24.2711 12.1819C27.0556 9.65725 30.1882 9.52251 31.4064 9.77072V10.5863C31.7777 10.7399 32.5759 11.0969 32.7987 11.2954V20.3728C31.3716 20.1955 27.6682 20.2664 24.2711 21.9684C22.7628 21.3183 19.0292 20.1742 16.1611 20.7983V11.2954C16.3816 11.2245 16.906 11.0898 17.2401 11.1181V9.84163C18.9457 9.56979 22.7396 9.65725 24.2711 12.1819Z" fill="#F9F9F9"/>
</mask>
<g mask="url(#mask4)">
<path d="M17.2032 19.4V11.1382L14.2446 10.3936L14.9408 22.8394C18.549 23.064 25.4663 23.1869 24.2689 21.8821C23.0716 20.5772 21.4148 19.1163 17.2032 19.4Z" fill="#ABDAFC"/>
<path d="M24.5029 8.59968L31.8659 8.45703L31.4784 22.3649H24.5029V8.59968Z" fill="#DFE9F4"/>
<path d="M31.2492 19.2971L31.4537 10.2871C32.2659 10.3108 33.8694 10.2871 33.9808 10.2871C34.12 10.2871 34.7814 11.5282 35.9648 14.1875C36.9115 16.315 35.2454 21.1255 34.2941 23.2649C30.9178 23.3949 24.1932 23.3216 24.3046 21.9884C24.416 20.6551 28.4995 19.2971 31.2492 19.2971Z" fill="#76C2F9"/>
</g>
<rect x="24.1982" y="24.8408" width="0.599559" height="1.83355" rx="0.29978" fill="#00A5EC"/>
</svg>
